<?xml version="1.0" encoding="UTF-8"?>
<svg width="120px" height="84px" viewBox="0 0 120 84" version="1.1" xmlns="http://www.w3.org/2000/svg" xmlns:xlink="http://www.w3.org/1999/xlink">
    <!-- Generator: Sketch 45.2 (43514) - http://www.bohemiancoding.com/sketch -->
    <title>fog-logo-white copy</title>
    <desc>Created with Sketch.</desc>
    <defs></defs>
    <g id="Page-1" stroke="none" stroke-width="1" fill="none" fill-rule="evenodd">
        <g id="Group" transform="translate(-189.000000, -744.000000)" fill-rule="nonzero" fill="#FFFFFF">
            <g id="fog-logo-white-copy" transform="translate(189.000000, 744.000000)">
                <path d="M10.5562744,70.7472514 L10.5562744,75.1612301 L7.23874736,75.1612301 L7.23874736,70.7472514 L3.25065637,70.7472514 L3.25065637,82.9298328 L7.23874736,82.9298328 L7.23874736,78.4275743 L10.5562744,78.4275743 L10.5562744,82.9298328 L14.5443654,82.9298328 L14.5443654,70.7472514 L10.5562744,70.7472514 Z M24.8381104,70.7472514 L20.4265054,70.7472514 L16.1913645,82.9298328 L20.3382732,82.9298328 L20.7970802,81.217209 L24.2734249,81.217209 L24.7498782,82.9298328 L29.0732513,82.9298328 L24.8381104,70.7472514 L24.8381104,70.7472514 Z M21.6441083,78.1627357 L22.5440758,74.8963913 L23.4440432,78.1627357 L21.6441083,78.1627357 L21.6441083,78.1627357 Z M41.3081026,70.7472514 L37.2847188,70.7472514 L37.2847188,77.8978969 C37.2847188,78.6041335 37.1611939,78.9572518 36.8964976,79.2220906 C36.6318012,79.4869292 36.2788729,79.6634884 35.7494802,79.6634884 C35.2200877,79.6634884 34.8671592,79.4869292 34.6024629,79.2220906 C34.3377667,78.9572518 34.1965954,78.6217894 34.1965954,77.8978969 L34.1965954,70.7472514 L30.1908577,70.7472514 L30.1908577,77.7213378 C30.1908577,79.6634884 30.6320183,80.8111228 31.5143393,81.6939187 C32.3966603,82.5767144 33.808374,83.1240478 35.7494802,83.1240478 C37.6905865,83.1240478 39.1023002,82.5767144 39.9846212,81.6939187 C40.8669422,80.8111228 41.3081026,79.6634884 41.3081026,77.7213378 L41.3081026,70.7472514 L41.3081026,70.7472514 Z M52.9253291,78.9219401 C52.9253291,77.6330582 52.3959364,76.8032301 51.7783117,76.2735528 C51.1606871,75.7438752 50.1724874,75.3907571 49.7489734,75.2495096 C49.3254593,75.1082624 48.5843096,74.8963913 48.3019669,74.8081117 C48.0196242,74.7198323 47.4549388,74.5962408 47.4549388,74.2431226 C47.4549388,73.8723484 47.8078671,73.7487568 48.4431383,73.7487568 C49.0784095,73.7487568 50.4195374,74.1018752 51.3371513,74.9140474 L52.8547433,72.0891009 C51.7959581,71.2063052 50.1371947,70.62366 48.5137239,70.62366 C46.8902532,70.62366 45.6726503,71.0650578 44.9315006,71.6830149 C44.2079974,72.2833159 43.5197869,73.3073591 43.5197869,74.6315527 C43.5197869,75.9557464 44.0138868,76.6972946 44.6315116,77.2269722 C45.2491362,77.7566495 45.954993,77.9861765 46.3079215,78.1274238 C46.6608498,78.2510153 47.6314029,78.5688217 48.0725635,78.6924131 C48.5137239,78.8336605 48.9548845,78.9749077 48.9548845,79.3280261 C48.9548845,79.6811444 48.5843096,79.8400475 48.0549171,79.8400475 C47.5255244,79.8400475 45.9373466,79.4692733 44.8079756,78.5158539 L43.0433336,81.5173595 C44.7020972,82.7532736 46.3255678,83.1417037 47.7372815,83.1417037 C49.1489951,83.1417037 50.3665982,82.8415532 51.3371513,82.1000047 C52.3077044,81.3408004 52.9253291,80.1931659 52.9253291,78.9219401 L52.9253291,78.9219401 L52.9253291,78.9219401 Z" id="HAUS-Copy-5"></path>
                <path d="M23.5704332,4.32754133 C23.1736225,3.79817584 22.6379363,3.42762558 21.9633582,3.21587935 C21.2887802,3.00413317 20.6605061,2.89826165 20.0785172,2.89826165 C18.8087231,2.89826165 17.7638042,3.18279132 16.9437289,3.75185926 C16.1236536,4.32092714 15.4755393,5.06864474 14.9993666,5.99503435 C14.5231938,6.92142399 14.1859098,7.96028822 13.9875045,9.11165816 C13.7890992,10.2630281 13.6898981,11.4209978 13.6898981,12.5856019 L13.6898981,21.121578 L24.6418165,21.121578 L24.6418165,24.2977551 L13.6898981,24.4962662 L13.7692598,53.1612649 C13.7692598,54.2464643 13.7560329,55.2059248 13.7295789,56.0396753 C13.7031249,56.8734261 13.5973103,57.753483 13.412132,58.6798726 L18.5309635,58.4416594 L18.5309635,61.7766452 L1.98404317,61.7766452 L1.98404317,59.3548103 C3.22738316,59.3548103 4.17310094,59.1099822 4.82122498,58.6203191 C5.46934897,58.1306564 5.93890117,57.4491085 6.22989561,56.5756555 C6.52089011,55.7022025 6.67961194,54.656721 6.70606601,53.4391802 C6.73252004,52.2216399 6.74574686,50.8850119 6.74574686,49.4292566 L6.66638516,24.6550751 L0,24.7741818 L0,21.121578 L6.66638516,21.121578 L6.66638516,19.4143828 C6.66638516,16.3969994 6.92430817,13.6906589 7.44016198,11.2952799 C7.95601578,8.89990106 8.79591904,6.86849141 9.95989684,5.20099009 C11.1238747,3.53348871 12.6383458,2.24979665 14.5033558,1.34987527 C16.3683657,0.449953931 18.6367657,0 21.3086239,0 C22.1816074,0 23.1273251,0.112488483 24.1458056,0.337468841 C25.1642862,0.562449152 26.1033907,0.919765516 26.9631469,1.40942862 C27.8229034,1.89909168 28.5437652,2.52108685 29.1257541,3.27543265 C29.707743,4.02977852 29.9987331,4.93630334 29.9987331,5.99503435 C29.9987331,7.08023365 29.6812894,7.96690756 29.0463923,8.65508271 C28.4114954,9.34325786 27.6046592,9.68734029 26.6258598,9.68734029 C25.9380545,9.68734029 25.3825281,9.57485181 24.9592634,9.34987145 C24.5359987,9.12489115 24.1854879,8.84036142 23.9077205,8.49627385 C23.629953,8.15218627 23.4315508,7.78163596 23.3125075,7.38461186 C23.1934643,6.98758772 23.1339436,6.63027134 23.1339436,6.31265208 C23.1339436,5.99503276 23.1670106,5.67080125 23.2331458,5.3399478 C23.299281,5.00909435 23.411709,4.67162891 23.5704332,4.32754133 L23.5704332,4.32754133 L23.5704332,4.32754133 Z M44.6812424,22.9081777 C42.5384649,22.9081777 40.7065502,23.3845994 39.1854427,24.3374573 C37.6643351,25.2903152 36.4144006,26.5607734 35.435601,28.1488699 C34.4568014,29.7369664 33.7359397,31.5632501 33.2729936,33.6277754 C32.8100481,35.6923009 32.5785787,37.8361992 32.5785787,40.0595344 C32.5785787,42.5740205 32.8365018,45.0222988 33.3523556,47.4044437 C33.8682094,49.7865886 34.6552054,51.897402 35.7133669,53.7369471 C36.7715284,55.5764924 38.1008245,57.0520761 39.7012939,58.1637436 C41.3017634,59.2754116 43.1733586,59.8312371 45.3161359,59.8312371 C47.4589133,59.8312371 49.2643749,59.3481981 50.7325742,58.382106 C52.2007731,57.4160139 53.3911871,56.1389388 54.3038516,54.5508425 C55.2165161,52.9627459 55.8712438,51.1496963 56.2680547,49.1116392 C56.6648651,47.0735816 56.8632676,44.9826196 56.8632676,42.8386892 C56.8632676,40.4036077 56.6384112,37.9950309 56.1886927,35.6128862 C55.7389742,33.2307415 55.0247255,31.1000772 54.0459259,29.2208298 C53.0671264,27.3415821 51.8039651,25.8196791 50.2564036,24.6550751 C48.7088423,23.490471 46.8504736,22.9081777 44.6812424,22.9081777 L44.6812424,22.9081777 L44.6812424,22.9081777 Z M44.6812424,19.8114049 C47.5382786,19.8114049 50.2100966,20.3341456 52.6967767,21.3796424 C55.1834564,22.4251392 57.3460421,23.8676386 59.1845979,25.7071837 C61.0231539,27.5467288 62.4781045,29.7303288 63.5494929,32.258049 C64.6208818,34.7857694 65.1565682,37.5185778 65.1565682,40.4565563 C65.1565682,43.606281 64.6341083,46.5574495 63.5891737,49.3101503 C62.5442391,52.0628506 61.1025154,54.4581937 59.2639599,56.4962508 C57.4254041,58.5343078 55.2562048,60.1422316 52.7562981,61.3200697 C50.2563911,62.4979084 47.564733,63.0868186 44.6812424,63.0868186 C41.8242056,63.0868186 39.1590009,62.5773116 36.6855482,61.5582833 C34.2120953,60.5392546 32.0561232,59.1166061 30.2175672,57.2902954 C28.3790114,55.4639843 26.9306744,53.2870011 25.8725126,50.7592809 C24.8143511,48.2315606 24.2852781,45.4590505 24.2852781,42.4416671 C24.2852781,39.2390059 24.8077376,36.2547524 25.8526722,33.4888177 C26.897607,30.722883 28.3327172,28.3275401 30.158046,26.3027169 C31.9833748,24.2778939 34.1393471,22.6898211 36.6260268,21.5384513 C39.1127068,20.3870813 41.7977518,19.8114049 44.6812424,19.8114049 L44.6812424,19.8114049 L44.6812424,19.8114049 Z M86.7038666,64.4366936 C85.1959862,64.3837571 83.7410356,64.3175875 82.3389716,64.2381828 C80.9369074,64.1587781 79.6009982,64.0132045 78.3312041,63.8014585 C76.8233239,64.7807843 75.6659769,65.9718388 74.8591286,67.3746575 C74.0522806,68.7774762 73.6488625,70.2729113 73.6488625,71.8610079 C73.6488625,73.2108898 73.9729195,74.4217952 74.6210437,75.4937601 C75.2691674,76.5657256 76.1950449,77.4854845 77.398704,78.2530643 C78.6023626,79.0206445 80.0573132,79.6095547 81.763599,80.0198126 C83.4698848,80.4300711 85.3679338,80.635197 87.457803,80.635197 C89.7857587,80.635197 91.8689832,80.3969862 93.7075391,79.9205571 C95.5460951,79.4441285 97.1002465,78.8088994 98.3700406,78.0148511 C99.6398347,77.2208028 100.605392,76.3010439 101.266744,75.2555471 C101.928095,74.2100502 102.258765,73.1050161 102.258765,71.9404121 C102.258765,70.4317207 101.868574,69.2075813 101.088179,68.2679576 C100.307786,67.3283335 99.2231861,66.5872329 97.8343491,66.0446333 C96.4455116,65.5020341 94.8053857,65.1182497 92.9139215,64.8932691 C91.0224579,64.6682887 88.95246,64.5160984 86.7038666,64.4366936 L86.7038666,64.4366936 L86.7038666,64.4366936 Z M85.9896111,22.6699643 C84.5346386,22.6699643 83.2384101,22.9611109 82.1008862,23.5434131 C80.9633626,24.1257152 80.0044181,24.9329854 79.2240236,25.9652481 C78.4436294,26.9975109 77.8484225,28.2150334 77.4383848,29.6178519 C77.0283469,31.0206704 76.8233314,32.5293395 76.8233314,34.1439042 C76.8233314,36.1025566 77.0349607,37.8825214 77.4582254,39.483852 C77.8814901,41.0851826 78.5031508,42.4681292 79.3232259,43.6327332 C80.1433009,44.7973375 81.1485395,45.6972455 82.3389716,46.3324839 C83.5294034,46.9677228 84.8785391,47.2853374 86.3864197,47.2853374 C87.8942998,47.2853374 89.2103689,47.0074244 90.3346655,46.4515908 C91.4589621,45.8957569 92.3980666,45.1215716 93.152007,44.1290112 C93.9059471,43.1364506 94.4747005,41.95863 94.858284,40.595514 C95.2418675,39.2323978 95.4336566,37.7568136 95.4336566,36.1687172 C95.4336566,34.3953427 95.2352543,32.6881646 94.8384434,31.0471316 C94.4416331,29.4060985 93.8464262,27.9702161 93.0528049,26.7394414 C92.2591837,25.5086665 91.2737852,24.522738 90.0965804,23.7816263 C88.9193756,23.0405146 87.5503994,22.6699643 85.9896111,22.6699643 L85.9896111,22.6699643 L85.9896111,22.6699643 Z M103.766638,19.4937872 C103.078833,19.5996604 102.470399,19.8180203 101.941318,20.1488737 C101.412237,20.4797271 100.949299,20.8965962 100.552488,21.3994934 C100.155678,21.9023906 99.8316201,22.4515992 99.5803068,23.0471354 C99.3289934,23.6426716 99.1372046,24.2448157 99.0049341,24.8535861 C100.35409,26.0975951 101.41885,27.5533283 102.199244,29.2208298 C102.979638,30.8883311 103.36983,32.6616789 103.36983,34.5409264 C103.36983,36.8436664 102.900277,38.9544794 101.961159,40.8734298 C101.02204,42.7923796 99.7588788,44.4466218 98.1716363,45.8362064 C96.5843936,47.2257909 94.7524789,48.3043569 92.6758366,49.0719367 C90.5991942,49.8395169 88.4233821,50.2233012 86.1483346,50.2233012 C85.1430808,50.2233012 84.2502704,50.1571315 83.469876,50.0247902 C82.6894821,49.8924484 81.7702179,49.8262791 80.7120563,49.8262791 C79.7068024,49.8262791 78.7875381,49.9586181 77.9542361,50.2233012 C77.1209336,50.4879838 76.4199124,50.8519172 75.8511501,51.3151119 C75.2823884,51.7783068 74.9054241,52.2282609 74.7202458,52.6649873 C74.5350676,53.1017139 74.4424796,53.4788809 74.4424796,53.7965001 C74.4424796,54.1141198 74.4953868,54.4449679 74.6012031,54.7890558 C74.7863813,55.4242941 75.2162532,55.940418 75.8908313,56.3374419 C76.5654094,56.7344663 77.4449929,57.0454636 78.5296087,57.270444 C79.6142241,57.4954246 80.9038394,57.6608488 82.3984925,57.7667216 C83.8931462,57.8725948 85.5795658,57.9652327 87.457803,58.0446374 C90.5793799,58.1769787 93.3768526,58.4747425 95.8503058,58.937937 C98.3237587,59.4011321 100.42021,60.1025308 102.139723,61.0421545 C103.859235,61.9817781 105.175304,63.1993008 106.087969,64.6947582 C107.000633,66.1902155 107.456958,68.0363501 107.456958,70.2332171 C107.456958,72.4300841 106.868365,74.3688559 105.69116,76.0495916 C104.513955,77.730327 102.979643,79.1463582 101.088179,80.2977284 C99.1967158,81.4490984 97.0671974,82.3225384 94.6995605,82.9180744 C92.331924,83.5136107 89.9444822,83.8113745 87.5371646,83.8113745 C83.886507,83.8113745 80.7715902,83.4937599 78.1923212,82.8585214 C75.6130521,82.2232825 73.5166008,81.3829274 71.9029043,80.3374304 C70.2892078,79.2919336 69.1120207,78.1141131 68.3713076,76.8039337 C67.6305944,75.4937538 67.260243,74.1637429 67.260243,72.8138608 C67.260243,71.5698521 67.4983262,70.4317332 67.9744985,69.3994703 C68.4506714,68.3672081 69.0524919,67.4408319 69.7799781,66.6203155 C70.5074644,65.7997991 71.3143004,65.0917835 72.2005106,64.4962472 C73.0867214,63.9007108 73.939851,63.4176718 74.7599266,63.0471161 C73.0139596,62.5177509 71.6383701,61.7567991 70.6331167,60.7642387 C69.6278633,59.7716785 69.125244,58.4019662 69.125244,56.6550596 C69.125244,55.7022019 69.3236464,54.7692092 69.7204567,53.8560535 C70.1172672,52.9428979 70.6727942,52.1025429 71.3870529,51.3349631 C72.1013123,50.5673829 72.9544424,49.9189202 73.9464688,49.3895545 C74.9384954,48.8601893 76.0297082,48.4896385 77.2201399,48.2778925 C75.9768,47.6955907 74.8525202,46.9875746 73.8472668,46.1538242 C72.8420128,45.3200734 71.9822695,44.3804636 71.2680108,43.3349668 C70.5537514,42.2894698 70.0048382,41.1447342 69.6212546,39.9007255 C69.2376711,38.6567165 69.045882,37.3200886 69.045882,35.8908018 C69.045882,33.4557203 69.5418881,31.2456526 70.5339145,29.2605319 C71.5259411,27.2754113 72.8221694,25.5814671 74.4226389,24.1786484 C76.0231089,22.7758299 77.84841,21.6972639 79.8985985,20.9429179 C81.9487865,20.1885722 84.0320111,19.8114049 86.1483346,19.8114049 C87.9736632,19.8114049 89.7725109,20.0694667 91.5449317,20.585598 C93.3173527,21.1017295 94.9574786,21.8626809 96.4653588,22.8684754 C96.8621696,21.7303396 97.4044692,20.6716244 98.0922743,19.6922982 C98.7800797,18.7129721 99.5538487,17.872617 100.413605,17.1712077 C101.273362,16.4697984 102.205852,15.9205899 103.211106,15.5235658 C104.216359,15.1265417 105.261278,14.9280325 106.345894,14.9280325 C107.721504,14.9280325 108.786264,15.2853489 109.540204,15.9999924 C110.294144,16.7146358 110.671108,17.7071813 110.671108,18.9776584 C110.671108,19.2952777 110.604974,19.6525941 110.472704,20.0496182 C110.340434,20.4466422 110.135418,20.8171927 109.857651,21.1612802 C109.579883,21.5053678 109.216146,21.7965145 108.766427,22.0347289 C108.316708,22.2729434 107.774409,22.3788148 107.139511,22.3523467 C106.21362,22.3258784 105.459691,22.0413487 104.877702,21.4987491 C104.295713,20.9561494 103.925362,20.2878355 103.766638,19.4937872 L103.766638,19.4937872 L103.766638,19.4937872 Z M119.95702,57.8858284 C119.95702,58.6004719 119.824751,59.2754028 119.560211,59.9106413 C119.295671,60.5458796 118.94516,61.1017055 118.508668,61.5781341 C118.072177,62.0545632 117.569558,62.4251135 117.000796,62.6897961 C116.432034,62.9544792 115.830213,63.0868186 115.195316,63.0868186 C114.560419,63.0868186 113.958599,62.9544792 113.389837,62.6897961 C112.821075,62.4251135 112.318456,62.0545632 111.881964,61.5781341 C111.445472,61.1017055 111.101575,60.5458796 110.850262,59.9106413 C110.598949,59.2754028 110.473294,58.6004719 110.473294,57.8858284 C110.473294,57.1447168 110.605562,56.4499352 110.870102,55.8014622 C111.134643,55.1529893 111.485153,54.590547 111.921645,54.1141179 C112.358137,53.6376889 112.867369,53.2605219 113.449358,52.9826047 C114.031347,52.7046881 114.639781,52.5657318 115.274678,52.5657318 C115.936029,52.5657318 116.551076,52.7046881 117.119838,52.9826047 C117.6886,53.2605219 118.184606,53.6376889 118.607871,54.1141179 C119.031135,54.590547 119.361806,55.1529893 119.599892,55.8014622 C119.837978,56.4499352 119.95702,57.1447168 119.95702,57.8858284 L119.95702,57.8858284 L119.95702,57.8858284 Z" id="fog.-copy-6"></path>
                <path d="M23.5704332,4.32754133 C23.1736225,3.79817584 22.6379363,3.42762558 21.9633582,3.21587935 C21.2887802,3.00413317 20.6605061,2.89826165 20.0785172,2.89826165 C18.8087231,2.89826165 17.7638042,3.18279132 16.9437289,3.75185926 C16.1236536,4.32092714 15.4755393,5.06864474 14.9993666,5.99503435 C14.5231938,6.92142399 14.1859098,7.96028822 13.9875045,9.11165816 C13.7890992,10.2630281 13.6898981,11.4209978 13.6898981,12.5856019 L13.6898981,21.121578 L24.6418165,21.121578 L24.6418165,24.2977551 L13.6898981,24.4962662 L13.7692598,53.1612649 C13.7692598,54.2464643 13.7560329,55.2059248 13.7295789,56.0396753 C13.7031249,56.8734261 13.5973103,57.753483 13.412132,58.6798726 L18.5309635,58.4416594 L18.5309635,61.7766452 L1.98404317,61.7766452 L1.98404317,59.3548103 C3.22738316,59.3548103 4.17310094,59.1099822 4.82122498,58.6203191 C5.46934897,58.1306564 5.93890117,57.4491085 6.22989561,56.5756555 C6.52089011,55.7022025 6.67961194,54.656721 6.70606601,53.4391802 C6.73252004,52.2216399 6.74574686,50.8850119 6.74574686,49.4292566 L6.66638516,24.6550751 L0,24.7741818 L0,21.121578 L6.66638516,21.121578 L6.66638516,19.4143828 C6.66638516,16.3969994 6.92430817,13.6906589 7.44016198,11.2952799 C7.95601578,8.89990106 8.79591904,6.86849141 9.95989684,5.20099009 C11.1238747,3.53348871 12.6383458,2.24979665 14.5033558,1.34987527 C16.3683657,0.449953931 18.6367657,0 21.3086239,0 C22.1816074,0 23.1273251,0.112488483 24.1458056,0.337468841 C25.1642862,0.562449152 26.1033907,0.919765516 26.9631469,1.40942862 C27.8229034,1.89909168 28.5437652,2.52108685 29.1257541,3.27543265 C29.707743,4.02977852 29.9987331,4.93630334 29.9987331,5.99503435 C29.9987331,7.08023365 29.6812894,7.96690756 29.0463923,8.65508271 C28.4114954,9.34325786 27.6046592,9.68734029 26.6258598,9.68734029 C25.9380545,9.68734029 25.3825281,9.57485181 24.9592634,9.34987145 C24.5359987,9.12489115 24.1854879,8.84036142 23.9077205,8.49627385 C23.629953,8.15218627 23.4315508,7.78163596 23.3125075,7.38461186 C23.1934643,6.98758772 23.1339436,6.63027134 23.1339436,6.31265208 C23.1339436,5.99503276 23.1670106,5.67080125 23.2331458,5.3399478 C23.299281,5.00909435 23.411709,4.67162891 23.5704332,4.32754133 L23.5704332,4.32754133 L23.5704332,4.32754133 Z M44.6812424,22.9081777 C42.5384649,22.9081777 40.7065502,23.3845994 39.1854427,24.3374573 C37.6643351,25.2903152 36.4144006,26.5607734 35.435601,28.1488699 C34.4568014,29.7369664 33.7359397,31.5632501 33.2729936,33.6277754 C32.8100481,35.6923009 32.5785787,37.8361992 32.5785787,40.0595344 C32.5785787,42.5740205 32.8365018,45.0222988 33.3523556,47.4044437 C33.8682094,49.7865886 34.6552054,51.897402 35.7133669,53.7369471 C36.7715284,55.5764924 38.1008245,57.0520761 39.7012939,58.1637436 C41.3017634,59.2754116 43.1733586,59.8312371 45.3161359,59.8312371 C47.4589133,59.8312371 49.2643749,59.3481981 50.7325742,58.382106 C52.2007731,57.4160139 53.3911871,56.1389388 54.3038516,54.5508425 C55.2165161,52.9627459 55.8712438,51.1496963 56.2680547,49.1116392 C56.6648651,47.0735816 56.8632676,44.9826196 56.8632676,42.8386892 C56.8632676,40.4036077 56.6384112,37.9950309 56.1886927,35.6128862 C55.7389742,33.2307415 55.0247255,31.1000772 54.0459259,29.2208298 C53.0671264,27.3415821 51.8039651,25.8196791 50.2564036,24.6550751 C48.7088423,23.490471 46.8504736,22.9081777 44.6812424,22.9081777 L44.6812424,22.9081777 L44.6812424,22.9081777 Z M44.6812424,19.8114049 C47.5382786,19.8114049 50.2100966,20.3341456 52.6967767,21.3796424 C55.1834564,22.4251392 57.3460421,23.8676386 59.1845979,25.7071837 C61.0231539,27.5467288 62.4781045,29.7303288 63.5494929,32.258049 C64.6208818,34.7857694 65.1565682,37.5185778 65.1565682,40.4565563 C65.1565682,43.606281 64.6341083,46.5574495 63.5891737,49.3101503 C62.5442391,52.0628506 61.1025154,54.4581937 59.2639599,56.4962508 C57.4254041,58.5343078 55.2562048,60.1422316 52.7562981,61.3200697 C50.2563911,62.4979084 47.564733,63.0868186 44.6812424,63.0868186 C41.8242056,63.0868186 39.1590009,62.5773116 36.6855482,61.5582833 C34.2120953,60.5392546 32.0561232,59.1166061 30.2175672,57.2902954 C28.3790114,55.4639843 26.9306744,53.2870011 25.8725126,50.7592809 C24.8143511,48.2315606 24.2852781,45.4590505 24.2852781,42.4416671 C24.2852781,39.2390059 24.8077376,36.2547524 25.8526722,33.4888177 C26.897607,30.722883 28.3327172,28.3275401 30.158046,26.3027169 C31.9833748,24.2778939 34.1393471,22.6898211 36.6260268,21.5384513 C39.1127068,20.3870813 41.7977518,19.8114049 44.6812424,19.8114049 L44.6812424,19.8114049 L44.6812424,19.8114049 Z M86.7038666,64.4366936 C85.1959862,64.3837571 83.7410356,64.3175875 82.3389716,64.2381828 C80.9369074,64.1587781 79.6009982,64.0132045 78.3312041,63.8014585 C76.8233239,64.7807843 75.6659769,65.9718388 74.8591286,67.3746575 C74.0522806,68.7774762 73.6488625,70.2729113 73.6488625,71.8610079 C73.6488625,73.2108898 73.9729195,74.4217952 74.6210437,75.4937601 C75.2691674,76.5657256 76.1950449,77.4854845 77.398704,78.2530643 C78.6023626,79.0206445 80.0573132,79.6095547 81.763599,80.0198126 C83.4698848,80.4300711 85.3679338,80.635197 87.457803,80.635197 C89.7857587,80.635197 91.8689832,80.3969862 93.7075391,79.9205571 C95.5460951,79.4441285 97.1002465,78.8088994 98.3700406,78.0148511 C99.6398347,77.2208028 100.605392,76.3010439 101.266744,75.2555471 C101.928095,74.2100502 102.258765,73.1050161 102.258765,71.9404121 C102.258765,70.4317207 101.868574,69.2075813 101.088179,68.2679576 C100.307786,67.3283335 99.2231861,66.5872329 97.8343491,66.0446333 C96.4455116,65.5020341 94.8053857,65.1182497 92.9139215,64.8932691 C91.0224579,64.6682887 88.95246,64.5160984 86.7038666,64.4366936 L86.7038666,64.4366936 L86.7038666,64.4366936 Z M85.9896111,22.6699643 C84.5346386,22.6699643 83.2384101,22.9611109 82.1008862,23.5434131 C80.9633626,24.1257152 80.0044181,24.9329854 79.2240236,25.9652481 C78.4436294,26.9975109 77.8484225,28.2150334 77.4383848,29.6178519 C77.0283469,31.0206704 76.8233314,32.5293395 76.8233314,34.1439042 C76.8233314,36.1025566 77.0349607,37.8825214 77.4582254,39.483852 C77.8814901,41.0851826 78.5031508,42.4681292 79.3232259,43.6327332 C80.1433009,44.7973375 81.1485395,45.6972455 82.3389716,46.3324839 C83.5294034,46.9677228 84.8785391,47.2853374 86.3864197,47.2853374 C87.8942998,47.2853374 89.2103689,47.0074244 90.3346655,46.4515908 C91.4589621,45.8957569 92.3980666,45.1215716 93.152007,44.1290112 C93.9059471,43.1364506 94.4747005,41.95863 94.858284,40.595514 C95.2418675,39.2323978 95.4336566,37.7568136 95.4336566,36.1687172 C95.4336566,34.3953427 95.2352543,32.6881646 94.8384434,31.0471316 C94.4416331,29.4060985 93.8464262,27.9702161 93.0528049,26.7394414 C92.2591837,25.5086665 91.2737852,24.522738 90.0965804,23.7816263 C88.9193756,23.0405146 87.5503994,22.6699643 85.9896111,22.6699643 L85.9896111,22.6699643 L85.9896111,22.6699643 Z M103.766638,19.4937872 C103.078833,19.5996604 102.470399,19.8180203 101.941318,20.1488737 C101.412237,20.4797271 100.949299,20.8965962 100.552488,21.3994934 C100.155678,21.9023906 99.8316201,22.4515992 99.5803068,23.0471354 C99.3289934,23.6426716 99.1372046,24.2448157 99.0049341,24.8535861 C100.35409,26.0975951 101.41885,27.5533283 102.199244,29.2208298 C102.979638,30.8883311 103.36983,32.6616789 103.36983,34.5409264 C103.36983,36.8436664 102.900277,38.9544794 101.961159,40.8734298 C101.02204,42.7923796 99.7588788,44.4466218 98.1716363,45.8362064 C96.5843936,47.2257909 94.7524789,48.3043569 92.6758366,49.0719367 C90.5991942,49.8395169 88.4233821,50.2233012 86.1483346,50.2233012 C85.1430808,50.2233012 84.2502704,50.1571315 83.469876,50.0247902 C82.6894821,49.8924484 81.7702179,49.8262791 80.7120563,49.8262791 C79.7068024,49.8262791 78.7875381,49.9586181 77.9542361,50.2233012 C77.1209336,50.4879838 76.4199124,50.8519172 75.8511501,51.3151119 C75.2823884,51.7783068 74.9054241,52.2282609 74.7202458,52.6649873 C74.5350676,53.1017139 74.4424796,53.4788809 74.4424796,53.7965001 C74.4424796,54.1141198 74.4953868,54.4449679 74.6012031,54.7890558 C74.7863813,55.4242941 75.2162532,55.940418 75.8908313,56.3374419 C76.5654094,56.7344663 77.4449929,57.0454636 78.5296087,57.270444 C79.6142241,57.4954246 80.9038394,57.6608488 82.3984925,57.7667216 C83.8931462,57.8725948 85.5795658,57.9652327 87.457803,58.0446374 C90.5793799,58.1769787 93.3768526,58.4747425 95.8503058,58.937937 C98.3237587,59.4011321 100.42021,60.1025308 102.139723,61.0421545 C103.859235,61.9817781 105.175304,63.1993008 106.087969,64.6947582 C107.000633,66.1902155 107.456958,68.0363501 107.456958,70.2332171 C107.456958,72.4300841 106.868365,74.3688559 105.69116,76.0495916 C104.513955,77.730327 102.979643,79.1463582 101.088179,80.2977284 C99.1967158,81.4490984 97.0671974,82.3225384 94.6995605,82.9180744 C92.331924,83.5136107 89.9444822,83.8113745 87.5371646,83.8113745 C83.886507,83.8113745 80.7715902,83.4937599 78.1923212,82.8585214 C75.6130521,82.2232825 73.5166008,81.3829274 71.9029043,80.3374304 C70.2892078,79.2919336 69.1120207,78.1141131 68.3713076,76.8039337 C67.6305944,75.4937538 67.260243,74.1637429 67.260243,72.8138608 C67.260243,71.5698521 67.4983262,70.4317332 67.9744985,69.3994703 C68.4506714,68.3672081 69.0524919,67.4408319 69.7799781,66.6203155 C70.5074644,65.7997991 71.3143004,65.0917835 72.2005106,64.4962472 C73.0867214,63.9007108 73.939851,63.4176718 74.7599266,63.0471161 C73.0139596,62.5177509 71.6383701,61.7567991 70.6331167,60.7642387 C69.6278633,59.7716785 69.125244,58.4019662 69.125244,56.6550596 C69.125244,55.7022019 69.3236464,54.7692092 69.7204567,53.8560535 C70.1172672,52.9428979 70.6727942,52.1025429 71.3870529,51.3349631 C72.1013123,50.5673829 72.9544424,49.9189202 73.9464688,49.3895545 C74.9384954,48.8601893 76.0297082,48.4896385 77.2201399,48.2778925 C75.9768,47.6955907 74.8525202,46.9875746 73.8472668,46.1538242 C72.8420128,45.3200734 71.9822695,44.3804636 71.2680108,43.3349668 C70.5537514,42.2894698 70.0048382,41.1447342 69.6212546,39.9007255 C69.2376711,38.6567165 69.045882,37.3200886 69.045882,35.8908018 C69.045882,33.4557203 69.5418881,31.2456526 70.5339145,29.2605319 C71.5259411,27.2754113 72.8221694,25.5814671 74.4226389,24.1786484 C76.0231089,22.7758299 77.84841,21.6972639 79.8985985,20.9429179 C81.9487865,20.1885722 84.0320111,19.8114049 86.1483346,19.8114049 C87.9736632,19.8114049 89.7725109,20.0694667 91.5449317,20.585598 C93.3173527,21.1017295 94.9574786,21.8626809 96.4653588,22.8684754 C96.8621696,21.7303396 97.4044692,20.6716244 98.0922743,19.6922982 C98.7800797,18.7129721 99.5538487,17.872617 100.413605,17.1712077 C101.273362,16.4697984 102.205852,15.9205899 103.211106,15.5235658 C104.216359,15.1265417 105.261278,14.9280325 106.345894,14.9280325 C107.721504,14.9280325 108.786264,15.2853489 109.540204,15.9999924 C110.294144,16.7146358 110.671108,17.7071813 110.671108,18.9776584 C110.671108,19.2952777 110.604974,19.6525941 110.472704,20.0496182 C110.340434,20.4466422 110.135418,20.8171927 109.857651,21.1612802 C109.579883,21.5053678 109.216146,21.7965145 108.766427,22.0347289 C108.316708,22.2729434 107.774409,22.3788148 107.139511,22.3523467 C106.21362,22.3258784 105.459691,22.0413487 104.877702,21.4987491 C104.295713,20.9561494 103.925362,20.2878355 103.766638,19.4937872 L103.766638,19.4937872 L103.766638,19.4937872 Z M119.95702,57.8858284 C119.95702,58.6004719 119.824751,59.2754028 119.560211,59.9106413 C119.295671,60.5458796 118.94516,61.1017055 118.508668,61.5781341 C118.072177,62.0545632 117.569558,62.4251135 117.000796,62.6897961 C116.432034,62.9544792 115.830213,63.0868186 115.195316,63.0868186 C114.560419,63.0868186 113.958599,62.9544792 113.389837,62.6897961 C112.821075,62.4251135 112.318456,62.0545632 111.881964,61.5781341 C111.445472,61.1017055 111.101575,60.5458796 110.850262,59.9106413 C110.598949,59.2754028 110.473294,58.6004719 110.473294,57.8858284 C110.473294,57.1447168 110.605562,56.4499352 110.870102,55.8014622 C111.134643,55.1529893 111.485153,54.590547 111.921645,54.1141179 C112.358137,53.6376889 112.867369,53.2605219 113.449358,52.9826047 C114.031347,52.7046881 114.639781,52.5657318 115.274678,52.5657318 C115.936029,52.5657318 116.551076,52.7046881 117.119838,52.9826047 C117.6886,53.2605219 118.184606,53.6376889 118.607871,54.1141179 C119.031135,54.590547 119.361806,55.1529893 119.599892,55.8014622 C119.837978,56.4499352 119.95702,57.1447168 119.95702,57.8858284 L119.95702,57.8858284 L119.95702,57.8858284 Z" id="fog.-copy-6"></path>
            </g>
        </g>
    </g>
</svg>